<?xml version="1.0" standalone="no"?>
<svg xmlns="http://www.w3.org/2000/svg" viewBox="0 0 16 16">
  <path d="M4.984 0A1 .994 0 0 0 4 1.008V2h2v-.992A1 .994 0 0 0 4.984 0zm3 0A1 .994 0 0 0 7 1.008V2h2v-.992A1 .994 0 0 0 7.984 0zm3 0A1 .994 0 0 0 10 1.008V2h2v-.992A1 .994 0 0 0 10.984 0zM5 3c-1.108 0-2 .892-2 2v6c0 1.108.892 2 2 2h6c1.108 0 2-.892 2-2V5c0-1.108-.892-2-2-2H5zM1.008 4a.994 1 0 1 0 0 2H2V4h-.992zM14 4v2h.992A.994 1 0 0 0 16 4.984.994 1 0 0 0 14.992 4H14zM1.008 7a.994 1 0 1 0 0 2H2V7h-.992zM14 7v2h.992A.994 1 0 0 0 16 7.984.994 1 0 0 0 14.992 7H14zM1.008 10a.994 1 0 1 0 0 2H2v-2h-.992zM14 10v2h.992A.994 1 0 0 0 16 10.984.994 1 0 0 0 14.992 10H14zM4 14v.992a1 .994 0 1 0 2 0V14H4zm3 0v.992a1 .994 0 1 0 2 0V14H7zm3 0v.992a1 .994 0 1 0 2 0V14h-2z"/>
</svg>