<?xml version="1.0" standalone="no"?>
<svg xmlns="http://www.w3.org/2000/svg" viewBox="0 0 512 512">
  <path d="M197 1.1c-15.8 1.8-23.3 5.2-29 13-2.4 3.4-3 5.2-3 9.3.1 7.1 2.4 11.5 12.5 23.6 15 17.8 23 29.3 33.8 48.6 9.6 17.2 20.8 45.2 25.7 64.4.7 2.5 3.4 8.6 6.1 13.6l4.9 9.1 10.8.6c7.6.3 13 1.2 18.7 3.1 4.4 1.4 8.3 2.2 8.7 1.8 1.3-1.3 8.7-32.2 11.2-47 7.4-44.1 5.1-77.5-7-102.2-3.9-7.7-6.2-10.9-12.8-17.5-11.9-11.8-23.2-17.1-42.4-20C224.7-.1 209-.3 197 1.1z"/>
  <path d="M361.5 23.4c-8.2 3-11.9 10.7-13 27.1-2.9 40.9-15.1 83-33.7 116-4.1 7.4-7.2 14.6-9.4 22l-3.3 11 3.4 2.7c4.5 3.8 12 13.9 15.7 21.3 1.7 3.3 3.2 6.1 3.3 6.3.1.2 4.7-2.3 10.1-5.4 45.8-26.3 79.7-57.1 93.9-85.4 13-25.8 11.8-48.9-3.7-72.7-9-13.8-32.3-35.8-43.3-40.9-6.6-3.1-14.8-3.9-20-2z"/>
  <path d="M97.5 75C79.4 77.8 63.4 86.8 47 103.2 26.9 123.5 19.8 137 23 149c2.4 9 10.5 13.2 28 14.5 43.5 3.2 87.2 16.4 121.1 36.6 3 1.7 10.3 4.7 16.3 6.4l10.8 3.3 2.9-3.3c4.2-4.8 13-11.3 20.9-15.4l7-3.7-5.6-9.9c-19.3-34.3-48.1-69.2-69.9-84.7-19.6-13.9-40.6-20.5-57-17.8z"/>
  <path d="M479.5 166.9c-2.3 1-8.6 5.6-14 10.3-32.6 27.7-69 47.5-106.6 57.9-7.6 2.1-14.4 4.8-20.5 8.2l-9.1 5.1-.6 10.5c-.3 7.5-1.3 13-3.1 18.6-1.4 4.4-2.2 8.3-1.8 8.7 1 1 26.1 7.4 38.2 9.7 47.7 9.2 84.8 7.4 110.9-5.5 16.1-7.9 28.3-22 34.1-39.2 5.6-17 6.5-46.6 1.9-66.4-1.4-6.3-5.9-13.1-11-16.8-3.4-2.4-5.2-3-9.3-3-2.8 0-6.9.9-9.1 1.9z"/>
  <path d="M244.3 202.5c-10.2 2.2-18.9 7.1-26.8 15-21.8 21.8-21.8 55.2 0 77 17.1 17.1 41.3 21.1 63.3 10.3 9.1-4.5 19.6-15 24-24.2 10.7-22.1 6.8-46-10.3-63.1-13.6-13.6-31.7-19-50.2-15z"/>
  <path d="M76.7 211.1c-13.3 1.5-27.2 5.4-37.7 10.5-18.4 9.1-30.8 25.2-36 46.4C.3 279.4-.6 297.6.9 312.4c2 18.5 4.9 25.5 13.3 31.6 3.3 2.4 5.1 3 9.2 3 7.2-.1 11.5-2.4 24.1-13 32.9-27.6 69.8-47.5 107-57.5 6.5-1.8 13.2-4.5 19.2-7.9l9.3-5.1v-7.3c0-7.9 2.1-19.9 4.6-25.8.8-2 1.2-4 .7-4.5-2.4-2.3-40.8-10.9-60.2-13.4-14.8-2-40.1-2.7-51.4-1.4z"/>
  <path d="M177 287.6c-14.1 8.1-33.9 21.6-44.9 30.4C98 345.5 80 370.4 75.3 396.5c-4.8 27.2 9.7 55.2 42.2 81.4 10.6 8.5 17.1 11.5 25.5 11.5 8.8.1 13.3-2.6 16.7-10.1 2-4.3 2.8-8.7 3.9-20.1 3.2-33.9 8.4-56.4 19.5-84.5 4.2-10.4 13.5-29.5 17.7-36.1 1.4-2.3 4-9 5.8-15.1l3.3-10.9-4-3.4c-4.8-4.1-11.7-13.7-15.5-21.5-1.6-3.1-3.1-5.7-3.4-5.6-.3 0-4.8 2.5-10 5.5z"/>
  <path d="M309.8 305.4c-3.5 4.4-13.8 12.1-21.3 15.8-3.3 1.7-6.1 3.2-6.3 3.3-1.2 1 20.3 35 31.2 49.4 42.7 56.3 84.7 75.5 123.1 56.3 12.9-6.4 28.2-19.7 41.3-35.7 8.6-10.6 11.5-16.9 11.6-25.5.1-12.9-6.7-18.3-25.1-20.1-21-2-29.2-3.2-40.8-5.5-29.7-6.2-59.1-17.2-83.6-31.4-3.6-2.1-10.6-5-15.5-6.4-5-1.4-9.7-2.8-10.5-3.1-.8-.3-2.5.9-4.1 2.9z"/>
  <path d="M225.6 323.8c-1 1.6-6.6 24.2-9 36.2-4 19.8-5.7 36-5.7 55 0 26.8 2.7 41.3 10.8 57.9 3.7 7.8 5.9 10.9 12.7 17.5 11.9 11.9 23.2 17.2 42.4 20.1 15.1 2.3 36.5 1.6 50.4-1.6 6.3-1.4 13.1-5.9 16.8-11 2.4-3.4 3-5.2 3-9.3-.1-7.1-2.4-11.7-12.2-23.1-27.7-32.6-47.4-68.9-57.9-106.6-2.1-7.4-4.9-14.6-8.2-20.7l-5.1-9.2h-7.3c-7.9 0-20-2.1-25.7-4.5-4.1-1.7-4.3-1.8-5-.7z"/>
</svg>
