<?xml version="1.0" standalone="no"?>
<svg version="1.0" xmlns="http://www.w3.org/2000/svg" viewBox="0 0 512 512">
  <path d="M205.5 1.4c-22.3 5.5-37.4 28.1-33.7 50.3 2.3 13.9 12.4 27.8 24 33.2l5.2 2.4V136h30V87.5l6.5-3.4c14.1-7.2 23.4-22.8 23.5-39.1.1-28.7-27.7-50.5-55.5-43.6z"/>
  <path d="M78.3 48.5C60.7 53.3 48 67.3 44.9 85.2c-3 18.1 6.9 37.7 23.4 46.3l5.6 3 .3 39.2c.3 37.9.4 39.2 2.4 42 1.1 1.5 3.6 3.8 5.4 5 3.2 2.2 4.1 2.3 26.6 2.3H132v-30h-28v-58.5l4.9-2.3c10.3-4.7 19.6-15.5 23.1-27 10.2-33.1-20.6-65.6-53.7-56.7z"/>
  <path d="M399.5 48.4c-12.1 3-24.6 12.9-29.4 23.4l-2.4 5.2h-38.4c-36.5 0-38.6.1-42.3 2-2.6 1.3-4.7 3.4-6 6-1.8 3.6-2 5.8-2 27.5V136h30v-29h58.5l3 5.8c8.7 16.7 28.2 26.5 46.6 23.4 21.9-3.8 37.8-22.3 37.9-44.2.1-28.7-27.7-50.5-55.5-43.6z"/>
  <path d="M457 164.1c-11.7 2.3-24.9 12.3-30.4 23.3l-2.8 5.6H377v30h46.8l2.7 5.6c1.5 3 5 7.9 7.9 10.7 14.5 14.7 36.5 17.8 54.1 7.7 6.1-3.5 14.4-12 17.3-17.6 17.4-34.2-11.3-72.6-48.8-65.3z"/>
  <path d="M168.1 166.8c-1.9.9-4.3 3.3-5.3 5.2-1.7 3.3-1.8 7.9-1.8 86.1v82.6l2.3 3.4c4.8 7.3-.3 6.9 91.2 6.9 77.6 0 82.2-.1 86.1-1.9 7.8-3.6 7.4 1.6 7.4-91.6 0-91.2.3-86.5-6.3-90.5-3.1-1.9-5.6-2-86.7-2-77.5 0-83.7.1-86.9 1.8zM296.5 209c2.6 1.3 4.9 3.4 6.3 5.9 2.2 3.8 2.2 4.6 2.2 42.2 0 42.3-.1 42.7-6.3 47.3-2.7 2-4.2 2.1-42.3 2.4-39.2.3-39.5.2-43.5-2-2.5-1.4-4.6-3.6-5.9-6.3-1.9-3.9-2-6.2-2-41.3 0-40 .1-41.3 5.2-46 1.4-1.3 3.8-2.7 5.4-3.2 1.6-.4 19.5-.9 39.8-.9 35-.1 37.2 0 41.1 1.9z"/>
  <path d="M235 257v20h40v-40h-40v20z"/>
  <path d="M38 262.1C9.2 267-7.3 298.8 5.3 325.3c16 33.7 64 34.3 80.5.9l2.6-5.2H132v-30H88l-2.5-5.1c-8.7-17.1-28.5-27-47.5-23.8z"/>
  <path d="M433 262c-14 2.6-26.3 11.4-32.7 23.6l-2.8 5.4H377v30h20.5l3.4 6.5c8 15.6 23.8 24.3 42.2 23.3 11.1-.7 19.5-4.3 27.8-12.3 28.1-26.8 11.5-73.5-27.4-76.8-3.3-.3-8-.1-10.5.3z"/>
  <path d="M86.5 379.7c-7.8 2.8-13.5 6.6-19.3 12.7-20.7 21.8-13.9 56.8 13.7 70.4 6.6 3.3 8.3 3.7 17 4 7.9.3 10.7 0 16.1-1.8 11.1-3.8 21.4-12.6 26.3-22.8l2.1-4.2h36.5c38.2 0 42.6-.4 47-4.3 4.6-4.3 5.1-7.1 5.1-31.2V380h-30v28h-57.9l-3.2-6c-4.2-7.9-13.1-16.3-21.6-20.3-6-2.8-8-3.2-16.8-3.4-7.7-.3-11.2.1-15 1.4z"/>
  <path d="M279 402.2v22.3l-5.3 2.8c-9.9 5.2-18.1 14.7-21.9 25.6-2.6 7.6-2.6 20.6 0 28.2 7.9 22.5 31.1 35.2 53.7 29.4 12.8-3.4 23.9-12.7 29.8-25.2 3-6.4 3.2-7.4 3.2-18.3s-.2-11.9-3.2-18.3c-4-8.5-12.4-17.4-20.3-21.6l-6-3.2V380h-30v22.2z"/>
</svg>